<svg width="61" height="45" viewBox="0 0 61 45" fill="none" xmlns="http://www.w3.org/2000/svg">
<path d="M0.98 22.76C0.98 20.24 1.2 17.68 1.64 15.08C2.12 12.48 2.94 10.12 4.1 8C5.3 5.88 6.92 4.16 8.96 2.84C11 1.48 13.6 0.799998 16.76 0.799998C19.92 0.799998 22.52 1.48 24.56 2.84C26.6 4.16 28.2 5.88 29.36 8C30.56 10.12 31.38 12.48 31.82 15.08C32.3 17.68 32.54 20.24 32.54 22.76C32.54 25.28 32.3 27.84 31.82 30.44C31.38 33.04 30.56 35.4 29.36 37.52C28.2 39.64 26.6 41.38 24.56 42.74C22.52 44.06 19.92 44.72 16.76 44.72C13.6 44.72 11 44.06 8.96 42.74C6.92 41.38 5.3 39.64 4.1 37.52C2.94 35.4 2.12 33.04 1.64 30.44C1.2 27.84 0.98 25.28 0.98 22.76ZM9.98 22.76C9.98 23.88 10.02 25.22 10.1 26.78C10.22 28.34 10.5 29.84 10.94 31.28C11.38 32.72 12.04 33.94 12.92 34.94C13.84 35.94 15.12 36.44 16.76 36.44C18.36 36.44 19.62 35.94 20.54 34.94C21.46 33.94 22.14 32.72 22.58 31.28C23.02 29.84 23.28 28.34 23.36 26.78C23.48 25.22 23.54 23.88 23.54 22.76C23.54 21.64 23.48 20.3 23.36 18.74C23.28 17.18 23.02 15.68 22.58 14.24C22.14 12.8 21.46 11.58 20.54 10.58C19.62 9.58 18.36 9.08 16.76 9.08C15.12 9.08 13.84 9.58 12.92 10.58C12.04 11.58 11.38 12.8 10.94 14.24C10.5 15.68 10.22 17.18 10.1 18.74C10.02 20.3 9.98 21.64 9.98 22.76ZM51.7878 11.6L43.2678 19.1L38.1678 13.22L52.0278 1.52H60.4278V44H51.7878V11.6Z" fill="#2C947D"/>
</svg>
