<svg width="105" height="32" viewBox="0 0 105 32" fill="none" xmlns="http://www.w3.org/2000/svg">
<path d="M9.35331 8.4L3.67331 13.4L0.273313 9.48L9.51331 1.68H15.1133V30H9.35331V8.4ZM22.8252 15.84C22.8252 14.16 22.9719 12.4533 23.2652 10.72C23.5852 8.98667 24.1319 7.41333 24.9052 6C25.7052 4.58666 26.7852 3.44 28.1452 2.56C29.5052 1.65333 31.2385 1.2 33.3452 1.2C35.4519 1.2 37.1852 1.65333 38.5452 2.56C39.9052 3.44 40.9719 4.58666 41.7452 6C42.5452 7.41333 43.0919 8.98667 43.3852 10.72C43.7052 12.4533 43.8652 14.16 43.8652 15.84C43.8652 17.52 43.7052 19.2267 43.3852 20.96C43.0919 22.6933 42.5452 24.2667 41.7452 25.68C40.9719 27.0933 39.9052 28.2533 38.5452 29.16C37.1852 30.04 35.4519 30.48 33.3452 30.48C31.2385 30.48 29.5052 30.04 28.1452 29.16C26.7852 28.2533 25.7052 27.0933 24.9052 25.68C24.1319 24.2667 23.5852 22.6933 23.2652 20.96C22.9719 19.2267 22.8252 17.52 22.8252 15.84ZM28.8252 15.84C28.8252 16.5867 28.8519 17.48 28.9052 18.52C28.9852 19.56 29.1719 20.56 29.4652 21.52C29.7585 22.48 30.1985 23.2933 30.7852 23.96C31.3985 24.6267 32.2519 24.96 33.3452 24.96C34.4119 24.96 35.2519 24.6267 35.8652 23.96C36.4785 23.2933 36.9319 22.48 37.2252 21.52C37.5185 20.56 37.6919 19.56 37.7452 18.52C37.8252 17.48 37.8652 16.5867 37.8652 15.84C37.8652 15.0933 37.8252 14.2 37.7452 13.16C37.6919 12.12 37.5185 11.12 37.2252 10.16C36.9319 9.2 36.4785 8.38667 35.8652 7.72C35.2519 7.05333 34.4119 6.72 33.3452 6.72C32.2519 6.72 31.3985 7.05333 30.7852 7.72C30.1985 8.38667 29.7585 9.2 29.4652 10.16C29.1719 11.12 28.9852 12.12 28.9052 13.16C28.8519 14.2 28.8252 15.0933 28.8252 15.84ZM46.4971 15.84C46.4971 14.16 46.6437 12.4533 46.9371 10.72C47.2571 8.98667 47.8037 7.41333 48.5771 6C49.3771 4.58666 50.4571 3.44 51.8171 2.56C53.1771 1.65333 54.9104 1.2 57.0171 1.2C59.1237 1.2 60.8571 1.65333 62.2171 2.56C63.5771 3.44 64.6437 4.58666 65.4171 6C66.2171 7.41333 66.7637 8.98667 67.0571 10.72C67.3771 12.4533 67.5371 14.16 67.5371 15.84C67.5371 17.52 67.3771 19.2267 67.0571 20.96C66.7637 22.6933 66.2171 24.2667 65.4171 25.68C64.6437 27.0933 63.5771 28.2533 62.2171 29.16C60.8571 30.04 59.1237 30.48 57.0171 30.48C54.9104 30.48 53.1771 30.04 51.8171 29.16C50.4571 28.2533 49.3771 27.0933 48.5771 25.68C47.8037 24.2667 47.2571 22.6933 46.9371 20.96C46.6437 19.2267 46.4971 17.52 46.4971 15.84ZM52.4971 15.84C52.4971 16.5867 52.5237 17.48 52.5771 18.52C52.6571 19.56 52.8437 20.56 53.1371 21.52C53.4304 22.48 53.8704 23.2933 54.4571 23.96C55.0704 24.6267 55.9237 24.96 57.0171 24.96C58.0837 24.96 58.9237 24.6267 59.5371 23.96C60.1504 23.2933 60.6037 22.48 60.8971 21.52C61.1904 20.56 61.3637 19.56 61.4171 18.52C61.4971 17.48 61.5371 16.5867 61.5371 15.84C61.5371 15.0933 61.4971 14.2 61.4171 13.16C61.3637 12.12 61.1904 11.12 60.8971 10.16C60.6037 9.2 60.1504 8.38667 59.5371 7.72C58.9237 7.05333 58.0837 6.72 57.0171 6.72C55.9237 6.72 55.0704 7.05333 54.4571 7.72C53.8704 8.38667 53.4304 9.2 53.1371 10.16C52.8437 11.12 52.6571 12.12 52.5771 13.16C52.5237 14.2 52.4971 15.0933 52.4971 15.84ZM89.1689 22.52C89.1689 21.4267 89.3689 20.4 89.7689 19.44C90.1956 18.48 90.7556 17.64 91.4489 16.92C92.1689 16.2 93.0089 15.64 93.9689 15.24C94.9289 14.8133 95.9556 14.6 97.0489 14.6C98.1423 14.6 99.1689 14.8133 100.129 15.24C101.089 15.64 101.916 16.2 102.609 16.92C103.329 17.64 103.889 18.48 104.289 19.44C104.716 20.4 104.929 21.4267 104.929 22.52C104.929 23.6133 104.716 24.6533 104.289 25.64C103.889 26.6 103.329 27.44 102.609 28.16C101.916 28.88 101.089 29.4533 100.129 29.88C99.1689 30.28 98.1423 30.48 97.0489 30.48C95.9556 30.48 94.9289 30.28 93.9689 29.88C93.0089 29.4533 92.1689 28.88 91.4489 28.16C90.7556 27.44 90.1956 26.6 89.7689 25.64C89.3689 24.6533 89.1689 23.6133 89.1689 22.52ZM100.849 22.52C100.849 21.4533 100.476 20.5467 99.7289 19.8C99.0089 19.0533 98.1156 18.68 97.0489 18.68C95.9823 18.68 95.0756 19.0533 94.3289 19.8C93.6089 20.5467 93.2489 21.4533 93.2489 22.52C93.2489 23.6133 93.6089 24.5333 94.3289 25.28C95.0756 26.0267 95.9823 26.4 97.0489 26.4C98.1156 26.4 99.0089 26.0267 99.7289 25.28C100.476 24.5333 100.849 23.6133 100.849 22.52ZM69.0489 9.12C69.0489 8.02667 69.2489 7 69.6489 6.04C70.0756 5.08 70.6356 4.24 71.3289 3.52C72.0489 2.8 72.8889 2.24 73.8489 1.84C74.8089 1.41333 75.8356 1.2 76.9289 1.2C78.0223 1.2 79.0489 1.41333 80.0089 1.84C80.9689 2.24 81.7956 2.8 82.4889 3.52C83.2089 4.24 83.7689 5.08 84.1689 6.04C84.5956 7 84.8089 8.02667 84.8089 9.12C84.8089 10.2133 84.5956 11.24 84.1689 12.2C83.7689 13.16 83.2089 14 82.4889 14.72C81.7956 15.44 80.9689 16.0133 80.0089 16.44C79.0489 16.84 78.0223 17.04 76.9289 17.04C75.8356 17.04 74.8089 16.84 73.8489 16.44C72.8889 16.0133 72.0489 15.44 71.3289 14.72C70.6356 14 70.0756 13.16 69.6489 12.2C69.2489 11.24 69.0489 10.2133 69.0489 9.12ZM80.7289 9.12C80.7289 8.05333 80.3556 7.14667 79.6089 6.4C78.8889 5.65333 77.9956 5.28 76.9289 5.28C75.8623 5.28 74.9556 5.65333 74.2089 6.4C73.4889 7.14667 73.1289 8.05333 73.1289 9.12C73.1289 10.1867 73.4889 11.0933 74.2089 11.84C74.9556 12.5867 75.8623 12.96 76.9289 12.96C77.9956 12.96 78.8889 12.5867 79.6089 11.84C80.3556 11.0933 80.7289 10.1867 80.7289 9.12ZM93.4489 0.4L96.8089 2.28L80.2889 31.28L77.2489 29.56L93.4489 0.4Z" fill="#2C947D"/>
</svg>
