<svg width="111" height="30" viewBox="0 0 111 30" fill="none" xmlns="http://www.w3.org/2000/svg">
<path d="M10.02 7.4L4.34 12.4L0.94 8.48L10.18 0.68H15.78V29H10.02V7.4ZM23.4919 14.84C23.4919 13.16 23.6385 11.4533 23.9319 9.72C24.2519 7.98667 24.7985 6.41333 25.5719 5C26.3719 3.58666 27.4519 2.44 28.8119 1.56C30.1719 0.653332 31.9052 0.199999 34.0119 0.199999C36.1185 0.199999 37.8519 0.653332 39.2119 1.56C40.5719 2.44 41.6385 3.58666 42.4119 5C43.2119 6.41333 43.7585 7.98667 44.0519 9.72C44.3719 11.4533 44.5319 13.16 44.5319 14.84C44.5319 16.52 44.3719 18.2267 44.0519 19.96C43.7585 21.6933 43.2119 23.2667 42.4119 24.68C41.6385 26.0933 40.5719 27.2533 39.2119 28.16C37.8519 29.04 36.1185 29.48 34.0119 29.48C31.9052 29.48 30.1719 29.04 28.8119 28.16C27.4519 27.2533 26.3719 26.0933 25.5719 24.68C24.7985 23.2667 24.2519 21.6933 23.9319 19.96C23.6385 18.2267 23.4919 16.52 23.4919 14.84ZM29.4919 14.84C29.4919 15.5867 29.5185 16.48 29.5719 17.52C29.6519 18.56 29.8385 19.56 30.1319 20.52C30.4252 21.48 30.8652 22.2933 31.4519 22.96C32.0652 23.6267 32.9185 23.96 34.0119 23.96C35.0785 23.96 35.9185 23.6267 36.5319 22.96C37.1452 22.2933 37.5985 21.48 37.8919 20.52C38.1852 19.56 38.3585 18.56 38.4119 17.52C38.4919 16.48 38.5319 15.5867 38.5319 14.84C38.5319 14.0933 38.4919 13.2 38.4119 12.16C38.3585 11.12 38.1852 10.12 37.8919 9.16C37.5985 8.2 37.1452 7.38667 36.5319 6.72C35.9185 6.05333 35.0785 5.72 34.0119 5.72C32.9185 5.72 32.0652 6.05333 31.4519 6.72C30.8652 7.38667 30.4252 8.2 30.1319 9.16C29.8385 10.12 29.6519 11.12 29.5719 12.16C29.5185 13.2 29.4919 14.0933 29.4919 14.84ZM47.1637 14.84C47.1637 13.16 47.3104 11.4533 47.6038 9.72C47.9238 7.98667 48.4704 6.41333 49.2438 5C50.0438 3.58666 51.1238 2.44 52.4838 1.56C53.8438 0.653332 55.5771 0.199999 57.6838 0.199999C59.7904 0.199999 61.5238 0.653332 62.8838 1.56C64.2438 2.44 65.3104 3.58666 66.0838 5C66.8838 6.41333 67.4304 7.98667 67.7238 9.72C68.0438 11.4533 68.2038 13.16 68.2038 14.84C68.2038 16.52 68.0438 18.2267 67.7238 19.96C67.4304 21.6933 66.8838 23.2667 66.0838 24.68C65.3104 26.0933 64.2438 27.2533 62.8838 28.16C61.5238 29.04 59.7904 29.48 57.6838 29.48C55.5771 29.48 53.8438 29.04 52.4838 28.16C51.1238 27.2533 50.0438 26.0933 49.2438 24.68C48.4704 23.2667 47.9238 21.6933 47.6038 19.96C47.3104 18.2267 47.1637 16.52 47.1637 14.84ZM53.1638 14.84C53.1638 15.5867 53.1904 16.48 53.2438 17.52C53.3238 18.56 53.5104 19.56 53.8038 20.52C54.0971 21.48 54.5371 22.2933 55.1238 22.96C55.7371 23.6267 56.5904 23.96 57.6838 23.96C58.7504 23.96 59.5904 23.6267 60.2038 22.96C60.8171 22.2933 61.2704 21.48 61.5638 20.52C61.8571 19.56 62.0304 18.56 62.0838 17.52C62.1638 16.48 62.2038 15.5867 62.2038 14.84C62.2038 14.0933 62.1638 13.2 62.0838 12.16C62.0304 11.12 61.8571 10.12 61.5638 9.16C61.2704 8.2 60.8171 7.38667 60.2038 6.72C59.5904 6.05333 58.7504 5.72 57.6838 5.72C56.5904 5.72 55.7371 6.05333 55.1238 6.72C54.5371 7.38667 54.0971 8.2 53.8038 9.16C53.5104 10.12 53.3238 11.12 53.2438 12.16C53.1904 13.2 53.1638 14.0933 53.1638 14.84ZM70.8356 14.84C70.8356 13.16 70.9823 11.4533 71.2756 9.72C71.5956 7.98667 72.1423 6.41333 72.9156 5C73.7156 3.58666 74.7956 2.44 76.1556 1.56C77.5156 0.653332 79.249 0.199999 81.3556 0.199999C83.4623 0.199999 85.1956 0.653332 86.5556 1.56C87.9156 2.44 88.9823 3.58666 89.7556 5C90.5556 6.41333 91.1023 7.98667 91.3956 9.72C91.7156 11.4533 91.8756 13.16 91.8756 14.84C91.8756 16.52 91.7156 18.2267 91.3956 19.96C91.1023 21.6933 90.5556 23.2667 89.7556 24.68C88.9823 26.0933 87.9156 27.2533 86.5556 28.16C85.1956 29.04 83.4623 29.48 81.3556 29.48C79.249 29.48 77.5156 29.04 76.1556 28.16C74.7956 27.2533 73.7156 26.0933 72.9156 24.68C72.1423 23.2667 71.5956 21.6933 71.2756 19.96C70.9823 18.2267 70.8356 16.52 70.8356 14.84ZM76.8356 14.84C76.8356 15.5867 76.8623 16.48 76.9156 17.52C76.9956 18.56 77.1823 19.56 77.4756 20.52C77.769 21.48 78.209 22.2933 78.7956 22.96C79.409 23.6267 80.2623 23.96 81.3556 23.96C82.4223 23.96 83.2623 23.6267 83.8756 22.96C84.489 22.2933 84.9423 21.48 85.2356 20.52C85.529 19.56 85.7023 18.56 85.7556 17.52C85.8356 16.48 85.8756 15.5867 85.8756 14.84C85.8756 14.0933 85.8356 13.2 85.7556 12.16C85.7023 11.12 85.529 10.12 85.2356 9.16C84.9423 8.2 84.489 7.38667 83.8756 6.72C83.2623 6.05333 82.4223 5.72 81.3556 5.72C80.2623 5.72 79.409 6.05333 78.7956 6.72C78.209 7.38667 77.769 8.2 77.4756 9.16C77.1823 10.12 76.9956 11.12 76.9156 12.16C76.8623 13.2 76.8356 14.0933 76.8356 14.84ZM106.308 15.28C105.428 14.1867 104.268 13.64 102.828 13.64C102.321 13.64 101.828 13.76 101.348 14C100.868 14.24 100.628 14.6533 100.628 15.24C100.628 15.72 100.868 16.08 101.348 16.32C101.854 16.5333 102.481 16.7333 103.228 16.92C104.001 17.08 104.814 17.2667 105.668 17.48C106.548 17.6667 107.361 17.9733 108.108 18.4C108.881 18.8267 109.508 19.4133 109.988 20.16C110.494 20.88 110.748 21.8533 110.748 23.08C110.748 24.3333 110.468 25.3733 109.908 26.2C109.374 27 108.681 27.6533 107.828 28.16C106.974 28.64 106.014 28.9733 104.947 29.16C103.881 29.3733 102.828 29.48 101.788 29.48C100.428 29.48 99.0542 29.2933 97.6675 28.92C96.2808 28.52 95.1075 27.8267 94.1475 26.84L97.7875 22.8C98.3475 23.4933 98.9608 24.0267 99.6275 24.4C100.321 24.7467 101.121 24.92 102.028 24.92C102.721 24.92 103.348 24.8267 103.908 24.64C104.468 24.4267 104.748 24.0533 104.748 23.52C104.748 23.0133 104.494 22.64 103.988 22.4C103.508 22.1333 102.881 21.92 102.108 21.76C101.361 21.5733 100.548 21.3867 99.6675 21.2C98.8142 20.9867 98.0008 20.68 97.2275 20.28C96.4808 19.88 95.8542 19.32 95.3475 18.6C94.8675 17.8533 94.6275 16.8667 94.6275 15.64C94.6275 14.4933 94.8542 13.5067 95.3075 12.68C95.7875 11.8533 96.4008 11.1733 97.1475 10.64C97.9208 10.1067 98.8008 9.72 99.7875 9.48C100.774 9.21333 101.774 9.08 102.788 9.08C104.068 9.08 105.361 9.26667 106.668 9.64C107.974 10.0133 109.081 10.68 109.988 11.64L106.308 15.28Z" fill="#2C947D"/>
</svg>
