<svg width="97" height="34" viewBox="0 0 97 34" fill="none" xmlns="http://www.w3.org/2000/svg">
<path d="M12.82 25.32H0.46V20.28L12.02 2.68H18.58V20.28H22.22V25.32H18.58V31H12.82V25.32ZM12.82 10.52H12.74L6.46 20.28H12.82V10.52ZM25.4119 27.56C25.4119 27.0533 25.5052 26.5733 25.6919 26.12C25.8785 25.6667 26.1319 25.28 26.4519 24.96C26.7985 24.6133 27.1985 24.3467 27.6519 24.16C28.1052 23.9733 28.5852 23.88 29.0919 23.88C29.5985 23.88 30.0785 23.9733 30.5319 24.16C30.9852 24.3467 31.3719 24.6133 31.6919 24.96C32.0385 25.28 32.3052 25.6667 32.4919 26.12C32.6785 26.5733 32.7719 27.0533 32.7719 27.56C32.7719 28.0667 32.6785 28.5467 32.4919 29C32.3052 29.4533 32.0385 29.8533 31.6919 30.2C31.3719 30.52 30.9852 30.7733 30.5319 30.96C30.0785 31.1467 29.5985 31.24 29.0919 31.24C28.5852 31.24 28.1052 31.1467 27.6519 30.96C27.1985 30.7733 26.7985 30.52 26.4519 30.2C26.1319 29.8533 25.8785 29.4533 25.6919 29C25.5052 28.5467 25.4119 28.0667 25.4119 27.56ZM37.3678 10C37.3678 8.69333 37.6078 7.56 38.0878 6.6C38.5945 5.61333 39.2745 4.8 40.1278 4.16C41.0078 3.49333 42.0211 3 43.1678 2.68C44.3145 2.36 45.5411 2.2 46.8478 2.2C48.1545 2.2 49.3811 2.36 50.5278 2.68C51.6745 3 52.6745 3.49333 53.5278 4.16C54.3811 4.8 55.0611 5.61333 55.5678 6.6C56.0745 7.56 56.3278 8.69333 56.3278 10C56.3278 11.5467 55.9011 12.8667 55.0478 13.96C54.2211 15.0533 53.0478 15.8267 51.5278 16.28V16.36C53.2345 16.8133 54.5411 17.64 55.4478 18.84C56.3545 20.0133 56.8078 21.48 56.8078 23.24C56.8078 24.6 56.5278 25.8 55.9678 26.84C55.4345 27.88 54.7011 28.7467 53.7678 29.44C52.8611 30.1067 51.8078 30.6133 50.6078 30.96C49.4078 31.3067 48.1545 31.48 46.8478 31.48C45.5411 31.48 44.2878 31.3067 43.0878 30.96C41.8878 30.6133 40.8211 30.1067 39.8878 29.44C38.9811 28.7467 38.2478 27.88 37.6878 26.84C37.1545 25.8 36.8878 24.6 36.8878 23.24C36.8878 21.48 37.3411 20.0133 38.2478 18.84C39.1545 17.64 40.4611 16.8133 42.1678 16.36V16.28C40.6478 15.8267 39.4611 15.0533 38.6078 13.96C37.7811 12.8667 37.3678 11.5467 37.3678 10ZM43.3678 10.84C43.3678 11.72 43.6878 12.4667 44.3278 13.08C44.9678 13.6933 45.8078 14 46.8478 14C47.8878 14 48.7278 13.6933 49.3678 13.08C50.0078 12.4667 50.3278 11.72 50.3278 10.84C50.3278 9.98667 50.0078 9.25333 49.3678 8.64C48.7278 8.02667 47.8878 7.72 46.8478 7.72C45.8078 7.72 44.9678 8.02667 44.3278 8.64C43.6878 9.25333 43.3678 9.98667 43.3678 10.84ZM42.8878 22.4C42.8878 23.3867 43.2478 24.2267 43.9678 24.92C44.6878 25.6133 45.6478 25.96 46.8478 25.96C48.0478 25.96 49.0078 25.6133 49.7278 24.92C50.4478 24.2267 50.8078 23.3867 50.8078 22.4C50.8078 21.3867 50.4478 20.5333 49.7278 19.84C49.0078 19.1467 48.0478 18.8 46.8478 18.8C45.6478 18.8 44.6878 19.1467 43.9678 19.84C43.2478 20.5333 42.8878 21.3867 42.8878 22.4ZM70.5197 0.559999L75.0797 1.96L63.0797 33.12L58.5597 31.72L70.5197 0.559999ZM95.6488 7.96H84.4088L84.2888 12.32C84.9021 12.1067 85.7421 12 86.8088 12C88.2488 12 89.5688 12.2133 90.7688 12.64C91.9688 13.0667 92.9954 13.6933 93.8488 14.52C94.7288 15.32 95.4087 16.3067 95.8888 17.48C96.3688 18.6267 96.6088 19.92 96.6088 21.36C96.6088 22.96 96.3288 24.3867 95.7688 25.64C95.2354 26.8933 94.4888 27.96 93.5288 28.84C92.5688 29.6933 91.4221 30.3467 90.0888 30.8C88.7821 31.2533 87.3554 31.48 85.8088 31.48C83.3554 31.48 81.3021 30.88 79.6488 29.68C77.9954 28.48 76.8621 26.6667 76.2488 24.24L82.5288 22.8C82.6888 23.8133 83.1154 24.64 83.8088 25.28C84.5021 25.8933 85.3688 26.2 86.4088 26.2C87.6888 26.2 88.7021 25.8 89.4488 25C90.2221 24.2 90.6088 23.1867 90.6088 21.96C90.6088 21.0267 90.4088 20.2667 90.0088 19.68C89.6354 19.0667 89.1288 18.5867 88.4888 18.24C87.8754 17.8667 87.1821 17.6133 86.4088 17.48C85.6354 17.3467 84.8621 17.28 84.0888 17.28C83.1021 17.28 82.1021 17.3733 81.0888 17.56C80.1021 17.7467 79.1421 18 78.2088 18.32L78.5288 2.68H95.6488V7.96Z" fill="#2C947D"/>
</svg>
