
<svg width="9" height="16" viewBox="0 0 9 16" fill="none" xmlns="http://www.w3.org/2000/svg">
<path d="M8.42991 0.00332907L6.39115 0C4.10067 0 2.62046 1.54552 2.62046 3.93762V5.75313H0.570576C0.393441 5.75313 0.25 5.89927 0.25 6.07954V8.71001C0.25 8.89028 0.393605 9.03625 0.570576 9.03625H2.62046V15.6738C2.62046 15.854 2.7639 16 2.94104 16H5.61555C5.79269 16 5.93613 15.8539 5.93613 15.6738V9.03625H8.33292C8.51006 9.03625 8.6535 8.89028 8.6535 8.71001L8.65448 6.07954C8.65448 5.99299 8.62063 5.91009 8.5606 5.84884C8.50057 5.78758 8.41879 5.75313 8.33374 5.75313H5.93613V4.2141C5.93613 3.47438 6.10934 3.09886 7.05618 3.09886L8.42959 3.09836C8.60656 3.09836 8.75 2.95222 8.75 2.77211V0.329578C8.75 0.149642 8.60672 0.00366197 8.42991 0.00332907Z" fill="white"/>
</svg>
