<svg width="14" height="14" viewBox="0 0 14 14" fill="none" xmlns="http://www.w3.org/2000/svg">
<path d="M10.6561 1.04999L8.9092 3.67498C8.55982 3.48892 7.86106 3.14995 6.98761 3.14995C4.89132 3.14995 3.14442 4.89994 3.14442 6.82493C3.14442 8.74992 4.54194 10.8502 6.98761 10.8502C8.94413 10.8502 10.3067 9.45013 10.3067 8.40013H6.98761V5.95004C9.43327 5.95008 13.9752 5.94994 13.9752 5.94994C14.1499 8.57503 13.3776 10.1151 12.403 11.3749C10.9441 13.2608 8.79432 14 6.98761 14C3.4938 14 0 11.2002 0 6.82493C0 2.62499 3.74665 0 6.63823 0C9.5298 0 10.6561 1.04999 10.6561 1.04999Z" fill="white"/>
</svg>
