<svg width="155" height="30" viewBox="0 0 155 30" fill="none" xmlns="http://www.w3.org/2000/svg">
<path d="M20.3466 5.96H9.10663L8.98663 10.32C9.59996 10.1067 10.44 10 11.5066 10C12.9466 10 14.2666 10.2133 15.4666 10.64C16.6666 11.0667 17.6933 11.6933 18.5466 12.52C19.4266 13.32 20.1066 14.3067 20.5866 15.48C21.0666 16.6267 21.3066 17.92 21.3066 19.36C21.3066 20.96 21.0266 22.3867 20.4666 23.64C19.9333 24.8933 19.1866 25.96 18.2266 26.84C17.2666 27.6933 16.12 28.3467 14.7866 28.8C13.48 29.2533 12.0533 29.48 10.5066 29.48C8.05329 29.48 5.99996 28.88 4.34663 27.68C2.69329 26.48 1.55996 24.6667 0.946626 22.24L7.22663 20.8C7.38663 21.8133 7.81329 22.64 8.50663 23.28C9.19996 23.8933 10.0666 24.2 11.1066 24.2C12.3866 24.2 13.4 23.8 14.1466 23C14.92 22.2 15.3066 21.1867 15.3066 19.96C15.3066 19.0267 15.1066 18.2667 14.7066 17.68C14.3333 17.0667 13.8266 16.5867 13.1866 16.24C12.5733 15.8667 11.88 15.6133 11.1066 15.48C10.3333 15.3467 9.55996 15.28 8.78663 15.28C7.79996 15.28 6.79996 15.3733 5.78663 15.56C4.79996 15.7467 3.83996 16 2.90663 16.32L3.22663 0.68H20.3466V5.96ZM24.6585 14.84C24.6585 13.16 24.8052 11.4533 25.0985 9.72C25.4185 7.98667 25.9652 6.41333 26.7385 5C27.5385 3.58666 28.6185 2.44 29.9785 1.56C31.3385 0.653332 33.0718 0.199999 35.1785 0.199999C37.2852 0.199999 39.0185 0.653332 40.3785 1.56C41.7385 2.44 42.8052 3.58666 43.5785 5C44.3785 6.41333 44.9252 7.98667 45.2185 9.72C45.5385 11.4533 45.6985 13.16 45.6985 14.84C45.6985 16.52 45.5385 18.2267 45.2185 19.96C44.9252 21.6933 44.3785 23.2667 43.5785 24.68C42.8052 26.0933 41.7385 27.2533 40.3785 28.16C39.0185 29.04 37.2852 29.48 35.1785 29.48C33.0718 29.48 31.3385 29.04 29.9785 28.16C28.6185 27.2533 27.5385 26.0933 26.7385 24.68C25.9652 23.2667 25.4185 21.6933 25.0985 19.96C24.8052 18.2267 24.6585 16.52 24.6585 14.84ZM30.6585 14.84C30.6585 15.5867 30.6852 16.48 30.7385 17.52C30.8185 18.56 31.0052 19.56 31.2985 20.52C31.5918 21.48 32.0318 22.2933 32.6185 22.96C33.2318 23.6267 34.0852 23.96 35.1785 23.96C36.2452 23.96 37.0852 23.6267 37.6985 22.96C38.3118 22.2933 38.7652 21.48 39.0585 20.52C39.3518 19.56 39.5252 18.56 39.5785 17.52C39.6585 16.48 39.6985 15.5867 39.6985 14.84C39.6985 14.0933 39.6585 13.2 39.5785 12.16C39.5252 11.12 39.3518 10.12 39.0585 9.16C38.7652 8.2 38.3118 7.38667 37.6985 6.72C37.0852 6.05333 36.2452 5.72 35.1785 5.72C34.0852 5.72 33.2318 6.05333 32.6185 6.72C32.0318 7.38667 31.5918 8.2 31.2985 9.16C31.0052 10.12 30.8185 11.12 30.7385 12.16C30.6852 13.2 30.6585 14.0933 30.6585 14.84ZM49.2504 25.56C49.2504 25.0533 49.3437 24.5733 49.5304 24.12C49.717 23.6667 49.9704 23.28 50.2904 22.96C50.637 22.6133 51.037 22.3467 51.4904 22.16C51.9437 21.9733 52.4237 21.88 52.9304 21.88C53.437 21.88 53.917 21.9733 54.3704 22.16C54.8237 22.3467 55.2104 22.6133 55.5304 22.96C55.877 23.28 56.1437 23.6667 56.3304 24.12C56.517 24.5733 56.6104 25.0533 56.6104 25.56C56.6104 26.0667 56.517 26.5467 56.3304 27C56.1437 27.4533 55.877 27.8533 55.5304 28.2C55.2104 28.52 54.8237 28.7733 54.3704 28.96C53.917 29.1467 53.437 29.24 52.9304 29.24C52.4237 29.24 51.9437 29.1467 51.4904 28.96C51.037 28.7733 50.637 28.52 50.2904 28.2C49.9704 27.8533 49.717 27.4533 49.5304 27C49.3437 26.5467 49.2504 26.0667 49.2504 25.56ZM60.1663 14.84C60.1663 13.16 60.313 11.4533 60.6063 9.72C60.9263 7.98667 61.473 6.41333 62.2463 5C63.0463 3.58666 64.1263 2.44 65.4863 1.56C66.8463 0.653332 68.5796 0.199999 70.6863 0.199999C72.793 0.199999 74.5263 0.653332 75.8863 1.56C77.2463 2.44 78.313 3.58666 79.0863 5C79.8863 6.41333 80.433 7.98667 80.7263 9.72C81.0463 11.4533 81.2063 13.16 81.2063 14.84C81.2063 16.52 81.0463 18.2267 80.7263 19.96C80.433 21.6933 79.8863 23.2667 79.0863 24.68C78.313 26.0933 77.2463 27.2533 75.8863 28.16C74.5263 29.04 72.793 29.48 70.6863 29.48C68.5796 29.48 66.8463 29.04 65.4863 28.16C64.1263 27.2533 63.0463 26.0933 62.2463 24.68C61.473 23.2667 60.9263 21.6933 60.6063 19.96C60.313 18.2267 60.1663 16.52 60.1663 14.84ZM66.1663 14.84C66.1663 15.5867 66.193 16.48 66.2463 17.52C66.3263 18.56 66.513 19.56 66.8063 20.52C67.0996 21.48 67.5396 22.2933 68.1263 22.96C68.7396 23.6267 69.593 23.96 70.6863 23.96C71.753 23.96 72.593 23.6267 73.2063 22.96C73.8196 22.2933 74.273 21.48 74.5663 20.52C74.8596 19.56 75.033 18.56 75.0863 17.52C75.1663 16.48 75.2063 15.5867 75.2063 14.84C75.2063 14.0933 75.1663 13.2 75.0863 12.16C75.033 11.12 74.8596 10.12 74.5663 9.16C74.273 8.2 73.8196 7.38667 73.2063 6.72C72.593 6.05333 71.753 5.72 70.6863 5.72C69.593 5.72 68.7396 6.05333 68.1263 6.72C67.5396 7.38667 67.0996 8.2 66.8063 9.16C66.513 10.12 66.3263 11.12 66.2463 12.16C66.193 13.2 66.1663 14.0933 66.1663 14.84ZM83.8382 14.84C83.8382 13.16 83.9849 11.4533 84.2782 9.72C84.5982 7.98667 85.1449 6.41333 85.9182 5C86.7182 3.58666 87.7982 2.44 89.1582 1.56C90.5182 0.653332 92.2515 0.199999 94.3582 0.199999C96.4649 0.199999 98.1982 0.653332 99.5582 1.56C100.918 2.44 101.985 3.58666 102.758 5C103.558 6.41333 104.105 7.98667 104.398 9.72C104.718 11.4533 104.878 13.16 104.878 14.84C104.878 16.52 104.718 18.2267 104.398 19.96C104.105 21.6933 103.558 23.2667 102.758 24.68C101.985 26.0933 100.918 27.2533 99.5582 28.16C98.1982 29.04 96.4649 29.48 94.3582 29.48C92.2515 29.48 90.5182 29.04 89.1582 28.16C87.7982 27.2533 86.7182 26.0933 85.9182 24.68C85.1449 23.2667 84.5982 21.6933 84.2782 19.96C83.9849 18.2267 83.8382 16.52 83.8382 14.84ZM89.8382 14.84C89.8382 15.5867 89.8649 16.48 89.9182 17.52C89.9982 18.56 90.1849 19.56 90.4782 20.52C90.7715 21.48 91.2115 22.2933 91.7982 22.96C92.4115 23.6267 93.2649 23.96 94.3582 23.96C95.4249 23.96 96.2649 23.6267 96.8782 22.96C97.4915 22.2933 97.9449 21.48 98.2382 20.52C98.5315 19.56 98.7049 18.56 98.7582 17.52C98.8382 16.48 98.8782 15.5867 98.8782 14.84C98.8782 14.0933 98.8382 13.2 98.7582 12.16C98.7049 11.12 98.5315 10.12 98.2382 9.16C97.9449 8.2 97.4915 7.38667 96.8782 6.72C96.2649 6.05333 95.4249 5.72 94.3582 5.72C93.2649 5.72 92.4115 6.05333 91.7982 6.72C91.2115 7.38667 90.7715 8.2 90.4782 9.16C90.1849 10.12 89.9982 11.12 89.9182 12.16C89.8649 13.2 89.8382 14.0933 89.8382 14.84ZM107.51 14.84C107.51 13.16 107.657 11.4533 107.95 9.72C108.27 7.98667 108.817 6.41333 109.59 5C110.39 3.58666 111.47 2.44 112.83 1.56C114.19 0.653332 115.923 0.199999 118.03 0.199999C120.137 0.199999 121.87 0.653332 123.23 1.56C124.59 2.44 125.657 3.58666 126.43 5C127.23 6.41333 127.777 7.98667 128.07 9.72C128.39 11.4533 128.55 13.16 128.55 14.84C128.55 16.52 128.39 18.2267 128.07 19.96C127.777 21.6933 127.23 23.2667 126.43 24.68C125.657 26.0933 124.59 27.2533 123.23 28.16C121.87 29.04 120.137 29.48 118.03 29.48C115.923 29.48 114.19 29.04 112.83 28.16C111.47 27.2533 110.39 26.0933 109.59 24.68C108.817 23.2667 108.27 21.6933 107.95 19.96C107.657 18.2267 107.51 16.52 107.51 14.84ZM113.51 14.84C113.51 15.5867 113.537 16.48 113.59 17.52C113.67 18.56 113.857 19.56 114.15 20.52C114.443 21.48 114.883 22.2933 115.47 22.96C116.083 23.6267 116.937 23.96 118.03 23.96C119.097 23.96 119.937 23.6267 120.55 22.96C121.163 22.2933 121.617 21.48 121.91 20.52C122.203 19.56 122.377 18.56 122.43 17.52C122.51 16.48 122.55 15.5867 122.55 14.84C122.55 14.0933 122.51 13.2 122.43 12.16C122.377 11.12 122.203 10.12 121.91 9.16C121.617 8.2 121.163 7.38667 120.55 6.72C119.937 6.05333 119.097 5.72 118.03 5.72C116.937 5.72 116.083 6.05333 115.47 6.72C114.883 7.38667 114.443 8.2 114.15 9.16C113.857 10.12 113.67 11.12 113.59 12.16C113.537 13.2 113.51 14.0933 113.51 14.84ZM132.222 14.36H140.662V5.92H145.702V14.36H154.142V19.4H145.702V27.84H140.662V19.4H132.222V14.36Z" fill="#2C947D"/>
</svg>
