<svg width="68" height="45" viewBox="0 0 68 45" fill="none" xmlns="http://www.w3.org/2000/svg">
<path d="M0.98 22.76C0.98 20.24 1.2 17.68 1.64 15.08C2.12 12.48 2.94 10.12 4.1 8C5.3 5.88 6.92 4.16 8.96 2.84C11 1.48 13.6 0.799998 16.76 0.799998C19.92 0.799998 22.52 1.48 24.56 2.84C26.6 4.16 28.2 5.88 29.36 8C30.56 10.12 31.38 12.48 31.82 15.08C32.3 17.68 32.54 20.24 32.54 22.76C32.54 25.28 32.3 27.84 31.82 30.44C31.38 33.04 30.56 35.4 29.36 37.52C28.2 39.64 26.6 41.38 24.56 42.74C22.52 44.06 19.92 44.72 16.76 44.72C13.6 44.72 11 44.06 8.96 42.74C6.92 41.38 5.3 39.64 4.1 37.52C2.94 35.4 2.12 33.04 1.64 30.44C1.2 27.84 0.98 25.28 0.98 22.76ZM9.98 22.76C9.98 23.88 10.02 25.22 10.1 26.78C10.22 28.34 10.5 29.84 10.94 31.28C11.38 32.72 12.04 33.94 12.92 34.94C13.84 35.94 15.12 36.44 16.76 36.44C18.36 36.44 19.62 35.94 20.54 34.94C21.46 33.94 22.14 32.72 22.58 31.28C23.02 29.84 23.28 28.34 23.36 26.78C23.48 25.22 23.54 23.88 23.54 22.76C23.54 21.64 23.48 20.3 23.36 18.74C23.28 17.18 23.02 15.68 22.58 14.24C22.14 12.8 21.46 11.58 20.54 10.58C19.62 9.58 18.36 9.08 16.76 9.08C15.12 9.08 13.84 9.58 12.92 10.58C12.04 11.58 11.38 12.8 10.94 14.24C10.5 15.68 10.22 17.18 10.1 18.74C10.02 20.3 9.98 21.64 9.98 22.76ZM37.4478 34.46L53.9478 19.64C54.7878 18.88 55.6278 18.02 56.4678 17.06C57.3078 16.1 57.7278 14.98 57.7278 13.7C57.7278 12.26 57.2078 11.14 56.1678 10.34C55.1278 9.5 53.9078 9.08 52.5078 9.08C50.8278 9.08 49.5078 9.6 48.5478 10.64C47.6278 11.68 47.1078 12.96 46.9878 14.48L37.9878 13.82C38.1078 11.62 38.5678 9.72 39.3678 8.12C40.1678 6.48 41.2278 5.12 42.5478 4.04C43.8678 2.96 45.4078 2.16 47.1678 1.64C48.9678 1.08 50.9078 0.799998 52.9878 0.799998C54.9078 0.799998 56.7078 1.08 58.3878 1.64C60.0678 2.16 61.5278 2.96 62.7678 4.04C64.0078 5.08 64.9678 6.4 65.6478 8C66.3678 9.6 66.7278 11.46 66.7278 13.58C66.7278 14.94 66.5878 16.18 66.3078 17.3C66.0278 18.38 65.6278 19.38 65.1078 20.3C64.6278 21.18 64.0478 22 63.3678 22.76C62.6878 23.52 61.9478 24.26 61.1478 24.98L48.2478 36.08H67.0878V44H37.4478V34.46Z" fill="#2C947D"/>
</svg>
