<svg width="67" height="45" viewBox="0 0 67 45" fill="none" xmlns="http://www.w3.org/2000/svg">
<path d="M0.98 22.76C0.98 20.24 1.2 17.68 1.64 15.08C2.12 12.48 2.94 10.12 4.1 8C5.3 5.88 6.92 4.16 8.96 2.84C11 1.48 13.6 0.799998 16.76 0.799998C19.92 0.799998 22.52 1.48 24.56 2.84C26.6 4.16 28.2 5.88 29.36 8C30.56 10.12 31.38 12.48 31.82 15.08C32.3 17.68 32.54 20.24 32.54 22.76C32.54 25.28 32.3 27.84 31.82 30.44C31.38 33.04 30.56 35.4 29.36 37.52C28.2 39.64 26.6 41.38 24.56 42.74C22.52 44.06 19.92 44.72 16.76 44.72C13.6 44.72 11 44.06 8.96 42.74C6.92 41.38 5.3 39.64 4.1 37.52C2.94 35.4 2.12 33.04 1.64 30.44C1.2 27.84 0.98 25.28 0.98 22.76ZM9.98 22.76C9.98 23.88 10.02 25.22 10.1 26.78C10.22 28.34 10.5 29.84 10.94 31.28C11.38 32.72 12.04 33.94 12.92 34.94C13.84 35.94 15.12 36.44 16.76 36.44C18.36 36.44 19.62 35.94 20.54 34.94C21.46 33.94 22.14 32.72 22.58 31.28C23.02 29.84 23.28 28.34 23.36 26.78C23.48 25.22 23.54 23.88 23.54 22.76C23.54 21.64 23.48 20.3 23.36 18.74C23.28 17.18 23.02 15.68 22.58 14.24C22.14 12.8 21.46 11.58 20.54 10.58C19.62 9.58 18.36 9.08 16.76 9.08C15.12 9.08 13.84 9.58 12.92 10.58C12.04 11.58 11.38 12.8 10.94 14.24C10.5 15.68 10.22 17.18 10.1 18.74C10.02 20.3 9.98 21.64 9.98 22.76ZM47.4678 18.26H50.4078C51.2478 18.26 52.0678 18.2 52.8678 18.08C53.6678 17.96 54.3878 17.74 55.0278 17.42C55.7078 17.06 56.2478 16.58 56.6478 15.98C57.0478 15.34 57.2478 14.52 57.2478 13.52C57.2478 12.24 56.7278 11.18 55.6878 10.34C54.6878 9.5 53.4478 9.08 51.9678 9.08C50.5678 9.08 49.4078 9.46 48.4878 10.22C47.5678 10.98 46.9678 11.92 46.6878 13.04L36.7878 11C37.2678 9.16 37.9878 7.6 38.9478 6.32C39.9078 5 41.0478 3.94 42.3678 3.14C43.6878 2.34 45.1478 1.76 46.7478 1.4C48.3878 0.999998 50.1078 0.799998 51.9078 0.799998C53.7878 0.799998 55.5878 1.04 57.3078 1.52C59.0678 1.96 60.6078 2.68 61.9278 3.68C63.2478 4.64 64.2878 5.86 65.0478 7.34C65.8478 8.82 66.2478 10.58 66.2478 12.62C66.2478 14.98 65.6278 17 64.3878 18.68C63.1478 20.36 61.3478 21.44 58.9878 21.92V22.1C60.2678 22.26 61.3878 22.64 62.3478 23.24C63.3478 23.84 64.1878 24.58 64.8678 25.46C65.5478 26.34 66.0678 27.34 66.4278 28.46C66.7878 29.58 66.9678 30.76 66.9678 32C66.9678 34.12 66.5478 35.98 65.7078 37.58C64.9078 39.18 63.8078 40.52 62.4078 41.6C61.0478 42.64 59.4278 43.42 57.5478 43.94C55.7078 44.46 53.7478 44.72 51.6678 44.72C47.8678 44.72 44.5878 43.84 41.8278 42.08C39.1078 40.32 37.3078 37.54 36.4278 33.74L45.9078 31.52C46.2278 33.04 46.8678 34.24 47.8278 35.12C48.8278 36 50.2878 36.44 52.2078 36.44C54.1678 36.44 55.6078 35.94 56.5278 34.94C57.4878 33.9 57.9678 32.58 57.9678 30.98C57.9678 29.78 57.7078 28.86 57.1878 28.22C56.7078 27.54 56.0678 27.04 55.2678 26.72C54.4678 26.4 53.5678 26.22 52.5678 26.18C51.5678 26.1 50.5678 26.06 49.5678 26.06H47.4678V18.26Z" fill="#2C947D"/>
</svg>
